<?xml version="1.0" standalone="no"?>
<!DOCTYPE svg PUBLIC "-//W3C//DTD SVG 20010904//EN"
 "http://www.w3.org/TR/2001/REC-SVG-20010904/DTD/svg10.dtd">
<svg version="1.0" xmlns="http://www.w3.org/2000/svg"
 width="256.000000pt" height="256.000000pt" viewBox="0 0 256.000000 256.000000"
 preserveAspectRatio="xMidYMid meet">
<metadata>
Created by potrace 1.11, written by Peter Selinger 2001-2013
</metadata>
<g transform="translate(0.000000,256.000000) scale(0.100000,-0.100000)"
fill="#000000" stroke="none">
<path d="M1085 2545 c-532 -83 -949 -482 -1061 -1013 -22 -106 -29 -298 -15
-407 72 -553 473 -986 1019 -1101 106 -22 298 -29 407 -15 289 38 549 164 750
366 192 191 315 432 360 704 21 124 17 331 -9 453 -130 609 -653 1033 -1269
1027 -56 -1 -138 -7 -182 -14z m495 -495 c19 -19 20 -33 20 -255 l0 -235 23 0
c95 0 213 -95 243 -195 48 -168 -56 -334 -225 -361 l-41 -7 0 -233 c0 -221 -1
-235 -20 -254 -11 -11 -28 -20 -38 -20 -15 0 -459 267 -534 320 -23 17 -44 20
-148 20 -115 0 -122 1 -145 25 l-25 24 0 405 0 405 26 20 c23 18 41 21 140 21
l114 0 82 50 c46 27 169 104 273 169 105 66 200 120 213 120 12 1 31 -8 42
-19z"/>
</g>
</svg>
